<svg id="svg" version="1.1" width="400" height="307" xmlns="http://www.w3.org/2000/svg" xmlns:xlink="http://www.w3.org/1999/xlink" style="display: block;"><g id="svgg"><path id="path0" d="M0.000 153.500 L 0.000 307.000 200.000 307.000 L 400.000 307.000 400.000 153.500 L 400.000 0.000 200.000 0.000 L 0.000 0.000 0.000 153.500 M363.000 60.000 L 363.000 83.000 200.000 83.000 L 37.000 83.000 37.000 60.000 L 37.000 37.000 200.000 37.000 L 363.000 37.000 363.000 60.000 M363.000 153.500 L 363.000 177.000 200.000 177.000 L 37.000 177.000 37.000 153.500 L 37.000 130.000 200.000 130.000 L 363.000 130.000 363.000 153.500 M363.000 247.000 L 363.000 270.000 200.000 270.000 L 37.000 270.000 37.000 247.000 L 37.000 224.000 200.000 224.000 L 363.000 224.000 363.000 247.000 " stroke="none" fill="#000000" fill-rule="evenodd"></path></g></svg>
