<?xml version="1.0" standalone="no"?>
<!DOCTYPE svg PUBLIC "-//W3C//DTD SVG 20010904//EN"
 "http://www.w3.org/TR/2001/REC-SVG-20010904/DTD/svg10.dtd">
<svg version="1.0" xmlns="http://www.w3.org/2000/svg"
 width="16.000000pt" height="16.000000pt" viewBox="0 0 16.000000 16.000000"
 preserveAspectRatio="xMidYMid meet">
<metadata>
Created by potrace 1.11, written by Peter Selinger 2001-2013
</metadata>
<g transform="translate(0.000000,16.000000) scale(0.002286,-0.002286)"
fill="#000000" stroke="none">
<path d="M3120 6760 c-186 -31 -303 -78 -391 -158 -88 -79 -85 -55 -83 -569
l1 -452 -76 -50 c-185 -122 -439 -433 -677 -826 l-78 -130 2 -215 c1 -118 4
-267 7 -330 3 -63 7 -180 10 -260 3 -80 8 -179 11 -220 8 -131 14 -213 19
-275 3 -33 7 -94 10 -135 4 -41 8 -93 10 -115 2 -22 7 -69 10 -105 3 -36 8
-81 10 -100 2 -19 7 -60 10 -90 3 -30 7 -71 9 -90 3 -19 7 -57 11 -85 3 -27 7
-63 9 -80 2 -16 7 -55 10 -85 4 -30 11 -80 16 -110 5 -30 12 -75 15 -100 12
-87 17 -117 56 -345 46 -272 49 -285 54 -305 2 -8 7 -31 10 -50 10 -61 85
-401 106 -485 12 -44 22 -87 24 -95 2 -8 10 -42 19 -75 9 -33 19 -69 21 -79
19 -81 138 -474 166 -546 l9 -25 915 0 c593 0 917 4 923 10 13 14 124 367 147
468 2 9 17 65 34 125 46 163 109 434 155 667 9 44 19 91 21 105 3 14 7 36 10
50 2 14 17 104 34 200 34 194 38 217 46 275 4 22 12 81 20 130 15 98 21 144
30 220 4 28 8 61 10 75 2 14 7 57 11 95 3 39 8 72 9 75 2 3 6 41 10 85 4 44 8
90 10 103 2 12 7 62 10 110 4 48 9 89 10 92 2 3 6 53 10 110 3 58 8 125 10
150 24 268 41 703 45 1137 l2 143 -60 112 c-100 192 -243 401 -386 567 -114
133 -179 194 -269 254 l-72 48 0 462 c-1 459 -1 463 -22 493 -72 100 -213 179
-385 213 -29 6 -66 13 -83 17 -16 3 -118 7 -225 9 -151 2 -219 -1 -300 -15z
m520 -344 c14 -3 37 -8 53 -12 40 -8 87 -34 88 -47 1 -7 2 -180 3 -384 l1
-373 -372 0 -373 0 0 384 1 384 62 17 c122 35 200 43 357 40 85 -1 166 -5 180
-9z m466 -1269 c42 -45 108 -122 146 -172 38 -49 75 -97 82 -106 7 -9 33 -45
57 -80 24 -35 47 -66 50 -69 10 -9 79 -114 79 -121 0 -6 -47 -17 -100 -24 -8
-1 -44 -8 -80 -15 -69 -13 -74 -14 -160 -24 -30 -4 -62 -9 -70 -11 -14 -4
-112 -15 -175 -20 -16 -1 -77 -6 -135 -11 -252 -20 -809 -8 -1030 23 -25 3
-54 7 -65 8 -93 9 -415 62 -424 71 -5 4 155 232 254 359 46 61 119 147 162
192 l77 82 627 0 627 0 78 -82z m480 -1104 c-4 -115 -8 -239 -11 -278 -2 -38
-7 -119 -10 -180 -3 -60 -8 -130 -10 -155 -2 -25 -6 -83 -9 -130 -4 -47 -9
-103 -11 -125 -2 -22 -9 -98 -15 -170 -6 -71 -13 -141 -15 -155 -2 -14 -7 -52
-10 -85 -3 -33 -7 -76 -10 -95 -9 -69 -25 -196 -30 -245 -4 -27 -10 -75 -15
-105 -5 -30 -12 -77 -16 -105 -3 -27 -7 -52 -9 -55 -2 -3 -6 -29 -10 -59 -4
-30 -8 -62 -10 -72 -2 -9 -6 -39 -10 -66 -5 -39 -33 -194 -70 -388 -3 -16 -10
-52 -15 -80 -15 -86 -80 -375 -111 -500 -17 -66 -32 -128 -34 -138 -12 -55
-79 -293 -86 -301 -8 -8 -1305 -14 -1312 -5 -6 7 -56 182 -98 344 -71 274
-146 614 -198 900 -6 33 -13 71 -16 85 -3 14 -8 45 -11 70 -3 25 -7 52 -9 60
-2 8 -8 51 -15 95 -7 44 -14 89 -16 100 -2 10 -6 37 -9 60 -3 22 -10 65 -15
95 -5 30 -12 84 -15 120 -4 36 -8 67 -10 70 -3 4 -13 93 -19 170 -2 14 -6 52
-10 85 -4 33 -9 78 -12 100 -2 22 -7 72 -9 110 -3 39 -7 93 -10 120 -31 314
-64 1105 -46 1105 5 0 33 -5 62 -11 53 -10 75 -14 134 -24 17 -3 39 -7 50 -9
11 -2 47 -7 80 -10 33 -4 74 -9 90 -11 223 -27 402 -37 700 -38 199 0 486 9
532 17 10 2 58 7 107 11 50 4 99 9 110 11 12 2 49 6 84 10 35 3 71 7 81 9 10
2 42 6 72 10 30 3 61 8 69 10 8 2 35 7 60 10 73 10 104 16 109 21 2 2 6 4 9 4
2 0 1 -93 -2 -207z"/>
<path d="M2497 3363 c-2 -5 -3 -15 -2 -23 1 -9 6 -63 9 -120 4 -58 13 -169 21
-246 8 -78 17 -168 20 -200 3 -33 8 -70 10 -84 2 -14 7 -47 10 -75 12 -99 26
-210 30 -235 3 -14 7 -43 10 -65 3 -22 10 -65 15 -95 5 -30 12 -77 15 -105 3
-27 10 -68 15 -90 5 -22 11 -56 15 -75 3 -19 14 -82 25 -140 11 -58 22 -118
25 -135 2 -16 7 -39 9 -50 3 -11 14 -63 25 -116 38 -182 110 -459 172 -661 20
-65 35 -98 44 -98 8 0 47 11 87 24 40 13 112 36 161 51 48 14 87 29 87 33 0 4
-14 52 -31 107 -31 104 -144 538 -153 590 -2 17 -14 73 -25 125 -41 191 -110
575 -125 690 -3 19 -7 49 -10 65 -2 17 -10 66 -16 110 -6 44 -16 109 -21 145
-10 69 -13 98 -24 195 -4 33 -8 71 -10 85 -2 14 -6 50 -10 80 -3 30 -8 71 -10
90 -3 19 -7 71 -10 115 -9 126 9 115 -185 115 -93 0 -171 -3 -173 -7z"/>
<path d="M1790 6095 c-272 -84 -479 -211 -686 -421 -152 -154 -269 -344 -343
-557 -102 -291 -115 -674 -34 -985 13 -49 20 -62 32 -59 88 26 327 101 330
104 4 3 -12 124 -26 193 -2 14 -6 95 -8 180 -6 222 27 387 111 565 134 285
385 500 729 625 50 18 91 33 91 34 3 2 -22 110 -46 206 -26 104 -28 112 -29
128 -1 17 -35 14 -121 -13z"/>
<path d="M6185 3085 c-22 -7 -93 -30 -158 -50 -110 -34 -118 -38 -113 -58 57
-209 68 -482 28 -662 -53 -237 -157 -425 -322 -581 -153 -145 -331 -247 -574
-328 -12 -4 -16 -12 -12 -22 4 -9 23 -85 42 -168 20 -83 40 -154 43 -158 9
-11 159 32 256 72 207 87 375 200 536 363 109 109 160 179 226 307 103 199
151 366 178 615 9 76 3 327 -9 410 -6 41 -20 129 -21 135 -1 3 -5 25 -10 50
-5 25 -10 48 -11 53 -1 4 -2 14 -3 22 -1 18 -23 18 -76 0z"/>
</g>
</svg>
