<?xml version="1.0" encoding="utf-8"?>
<!-- Generator: Adobe Illustrator 16.0.0, SVG Export Plug-In . SVG Version: 6.00 Build 0)  -->
<!DOCTYPE svg PUBLIC "-//W3C//DTD SVG 1.1 Tiny//EN" "http://www.w3.org/Graphics/SVG/1.1/DTD/svg11-tiny.dtd">
<svg version="1.1" baseProfile="tiny" id="Calque_1"
	 xmlns="http://www.w3.org/2000/svg" xmlns:xlink="http://www.w3.org/1999/xlink" x="0px" y="0px" width="2148.1px"
	 height="231.652px" viewBox="0 1375.045 2148.1 231.652" xml:space="preserve">
<g>
	<path d="M181.086,1570.316c-24.978,24.435-46.425,36.109-81.72,36.109C40.453,1606.426,0,1565.158,0,1507.33
		c0-59.457,46.154-98.552,99.91-98.552c31.222,0,61.357,13.574,81.991,37.737l-25.249,24.163
		c-17.104-18.19-35.565-27.421-57.557-27.421c-35.294,0-64.072,27.149-64.072,64.072c0,38.824,27.692,64.615,64.887,64.615
		c23.348,0,39.095-9.502,56.742-27.148L181.086,1570.316z"/>
	<path d="M348.869,1532.036c0,40.452-31.222,73.304-73.575,73.304c-40.181,0-72.217-32.309-72.217-73.032
		c0-42.081,33.937-73.303,71.945-73.303C315.475,1459.005,348.869,1491.041,348.869,1532.036z M238.1,1532.036
		c0,23.62,14.932,40.452,37.466,40.452c21.448,0,38.28-15.746,38.28-40.181c0-23.62-15.475-40.452-38.28-40.452
		C253.575,1491.855,238.1,1508.959,238.1,1532.036z"/>
	<path d="M411.855,1476.651c13.303-11.131,25.792-17.918,40.995-17.918c25.792,0,47.512,17.918,47.512,47.782v95.022h-34.751
		v-65.701c0-27.421-2.443-45.067-23.62-45.067c-9.774,0-18.19,4.615-23.62,13.303c-7.059,11.132-6.787,23.892-6.787,38.28v59.186
		h-34.751v-139.004h34.751v14.117H411.855z"/>
	<path d="M538.371,1411.222h34.751v51.313h20.634v29.864h-20.634v109.14h-34.751v-109.14h-17.919v-29.864h17.919V1411.222z"/>
	<path d="M645.068,1560.814c9.773,9.502,19.547,13.575,34.479,13.575c19.818,0,35.565-11.403,39.095-32.309H606.516
		c0-3.258-0.271-4.615-0.271-7.873c0-43.981,29.864-75.475,73.847-75.475c44.796,0,72.217,35.022,72.217,73.031
		c0,40.724-28.507,73.304-72.76,73.304c-29.321,0-48.869-9.503-63.802-30.679L645.068,1560.814z M717.014,1514.661
		c-6.787-17.647-20.091-26.063-37.466-26.063c-18.462,0-33.394,10.045-38.281,26.063H717.014z"/>
	<path d="M815.022,1476.651c13.304-11.131,25.792-17.918,40.995-17.918c25.793,0,47.512,17.918,47.512,47.782v95.022h-34.751
		v-65.701c0-27.421-2.443-45.067-23.62-45.067c-9.773,0-18.189,4.615-23.62,13.303c-7.059,11.132-6.787,23.892-6.787,38.28v59.186
		H780v-139.004h34.751v14.117H815.022z"/>
	<path d="M941.539,1411.222h34.75v51.313h20.634v29.864h-20.634v109.14h-34.75v-109.14H923.62v-29.864h17.919V1411.222z"/>
	<path d="M1106.878,1547.512c8.688,16.289,18.462,24.705,31.222,24.705c11.945,0,21.72-7.873,21.72-17.646
		c0-6.787-4.345-14.661-11.946-20.905c-39.095-32.851-62.172-50.498-62.172-77.104c0-26.606,23.349-47.512,51.584-47.512
		c23.892,0,39.638,12.76,54.57,30.136l-26.606,23.62c-8.959-12.489-18.19-19.276-28.235-19.276c-9.502,0-16.018,5.43-16.018,13.032
		c0,7.33,5.43,11.945,11.131,16.832c35.022,30.95,62.986,45.611,62.986,79.819c0,31.493-23.62,53.484-57.557,53.484
		c-27.421,0-46.697-13.304-60.543-40.725L1106.878,1547.512z"/>
	<path d="M1225.521,1409.05h34.751v67.873c13.303-11.402,26.063-17.918,40.996-17.918c26.063,0,47.782,17.104,47.782,50.769v91.765
		h-34.751v-65.701c0-28.235-3.529-45.067-23.892-45.067c-9.773,0-18.19,4.887-23.62,13.574c-7.059,11.132-6.516,23.62-6.516,38.009
		v59.186h-34.751V1409.05L1225.521,1409.05z"/>
	<path d="M1485.34,1586.878c-12.218,11.945-25.521,18.462-42.896,18.462c-35.294,0-66.244-30.407-66.244-73.032
		c0-43.438,29.321-73.303,65.43-73.303c16.833,0,31.222,6.244,43.711,18.732v-15.203h34.75v139.004h-34.75V1586.878z
		 M1411.222,1532.036c0,23.892,15.747,41.268,37.466,41.268c21.448,0,38.281-16.29,38.281-41.539
		c0-24.435-16.29-40.724-38.281-40.724C1425.611,1491.041,1411.222,1509.23,1411.222,1532.036z"/>
	<path d="M1679.186,1601.538h-34.751v-64.072l-59.186,64.072h-43.167l67.059-72.217l-59.729-66.787h43.438l51.584,57.285v-110.77
		h34.751V1601.538z"/>
	<path d="M1739.457,1560.814c9.773,9.502,19.548,13.575,34.479,13.575c19.819,0,35.565-11.403,39.095-32.309h-112.126
		c0-3.258-0.271-4.615-0.271-7.873c0-43.981,29.864-75.475,73.847-75.475c44.796,0,72.217,35.022,72.217,73.031
		c0,40.724-28.507,73.304-72.76,73.304c-29.322,0-48.869-9.503-63.802-30.679L1739.457,1560.814z M1811.674,1514.661
		c-6.787-17.647-20.09-26.063-37.466-26.063c-18.462,0-33.394,10.045-38.28,26.063H1811.674z"/>
	<path d="M1896.651,1480.181c6.517-14.389,17.919-21.176,29.321-21.176c7.33,0,11.674,2.172,15.203,3.801l-10.859,29.864
		c-2.715-1.357-6.516-2.986-10.316-2.986c-10.045,0-17.918,11.402-18.462,32.036c-0.271,7.602-0.271,16.289-0.271,23.892v56.198
		h-34.752v-139.275h30.136V1480.181z"/>
	<g>
		<path d="M2134.479,1424.253l13.575-23.619c0,0,1.629-8.417-14.661-17.919c-16.561-9.502-22.806-3.801-22.806-3.801l-13.574,23.62
			c-12.217-0.814-36.108,13.574-36.108,13.574c-40.725,70.589-48.598,122.443-48.598,122.443l23.62,13.575l23.62,13.574
			c0,0,40.995-32.851,81.719-103.438C2140.725,1462.263,2141.268,1434.299,2134.479,1424.253z M2117.647,1388.145
			c1.9,0.271,5.43,1.086,10.316,4.072c4.887,2.716,7.33,5.431,8.688,6.788l-11.402,19.818l-18.733-10.859L2117.647,1388.145z
			 M2094.299,1413.665l32.308,18.462c1.9,4.615,2.986,14.389,3.529,23.349c-21.177-7.331-40.724-18.462-57.557-33.123
			C2080.452,1418.009,2089.141,1414.208,2094.299,1413.665z M2057.919,1552.398l-16.833-9.774l-16.832-9.773
			c3.529-15.203,14.117-54.027,40.995-102.624c8.959,7.873,18.461,14.66,28.778,20.633c10.316,5.974,20.904,10.86,32.308,14.661
			C2097.557,1513.304,2069.321,1541.81,2057.919,1552.398z"/>
		<path d="M2085.068,1377.014c-6.517-1.9-19.276-4.072-33.123,2.172c-20.633,9.502-25.791,29.864-26.877,33.937l10.588,2.172
			c0.543-1.9,4.615-19.004,20.633-26.335c10.86-4.887,21.448-2.715,25.521-1.629L2085.068,1377.014z"/>
		<path d="M2111.674,1562.715l-10.588-2.172c-0.543,1.9-4.615,19.005-20.634,26.335c-10.859,4.887-21.448,2.715-25.521,1.629
			l-2.986,10.316c6.517,1.9,19.276,4.072,33.123-2.172C2105.43,1587.421,2110.588,1566.787,2111.674,1562.715z"/>
		<path d="M2059.548,1456.562c-0.814,1.629-19.548,39.366-26.606,73.846l10.588,2.172c7.059-33.122,25.521-70.859,25.792-71.402
			L2059.548,1456.562z"/>
	</g>
</g>
</svg>
