<?xml version="1.0" encoding="utf-8"?>
<!-- Generator: Adobe Illustrator 16.0.0, SVG Export Plug-In . SVG Version: 6.00 Build 0)  -->
<!DOCTYPE svg PUBLIC "-//W3C//DTD SVG 1.1 Tiny//EN" "http://www.w3.org/Graphics/SVG/1.1/DTD/svg11-tiny.dtd">
<svg version="1.1" baseProfile="tiny" id="Calque_1"
	 xmlns="http://www.w3.org/2000/svg" xmlns:xlink="http://www.w3.org/1999/xlink" x="0px" y="0px" width="1031.818px"
	 height="161.364px" viewBox="1.515 1633.333 1031.818 161.364" xml:space="preserve">
<g>
	<g>
		<path d="M24.621,1760.984H1.515v-127.651h23.106v45.834c8.333-8.334,17.803-12.5,29.167-12.5
			c23.863,0,43.561,19.696,43.561,48.484c0,28.409-20.833,48.485-43.939,48.485c-11.743,0-20.076-4.167-28.409-12.122v9.47H24.621z
			 M23.485,1714.772c0,16.667,10.985,27.651,25.379,27.651s25-11.742,25-27.272c0-15.151-9.849-27.272-25-27.272
			C34.091,1687.879,23.485,1698.484,23.485,1714.772z"/>
		<path d="M106.061,1668.939h23.485l23.864,57.954l26.515-57.954h23.864l-57.955,125.758H121.97l18.939-40.53L106.061,1668.939z"/>
	</g>
	<g>
		<path d="M857.576,1633.333c0,0.758,0,1.137,0,1.895c0,44.317,0,88.636,0,132.954c0,0.758,0,1.137,0,1.894
			c-8.334,0-16.288,0-24.622,0c0-3.408,0-6.438,0-10.227c-1.136,1.136-1.894,1.894-3.03,2.651
			c-6.061,5.303-13.257,8.712-21.591,9.849c-0.379,0-0.379,0-0.757,0.379c-3.788,0-7.197,0-10.985,0
			c-2.651-0.758-5.303-1.137-7.954-1.895c-16.667-6.061-27.273-17.424-31.439-34.091c-4.167-15.909-3.03-31.818,6.061-46.212
			c7.196-11.363,17.424-18.939,31.439-20.833c14.015-1.895,26.136,1.894,36.363,11.363c0.379,0.379,0.758,0.758,1.137,0.758
			c0,0,0,0,0.379,0c0-0.379,0-0.758,0-1.137c0-15.53,0-31.061,0-46.591c0-0.379,0-0.379,0-0.758
			C840.909,1633.333,849.242,1633.333,857.576,1633.333z M834.091,1720.833c-0.379-2.651-0.379-5.303-1.137-7.954
			c-2.272-10.606-10.227-18.561-20.454-20.455c-11.363-1.894-21.591,1.895-27.651,11.364c-5.304,8.333-6.061,17.045-3.409,26.515
			c6.061,20.834,28.03,24.621,41.288,15.151C830.682,1739.015,833.712,1730.682,834.091,1720.833z"/>
		<path d="M935.605,1772.728c-2.272-0.379-4.545-0.758-6.438-1.516c-17.804-6.061-28.788-18.182-32.955-35.984
			c-3.409-14.773-2.272-29.167,5.304-42.425c6.817-11.742,16.666-20.075,30.303-22.727c14.772-3.03,27.651,0.757,39.015,11.363
			c0.379,0.379,0.758,0.379,0.758,0.758c0,0,0,0,0.379,0c0-3.409,0-6.818,0-10.228c8.333,0,16.288,0,24.621,0
			c0,32.954,0,65.53,0,98.484c-8.333,0-16.288,0-24.621,0c0-3.408,0-6.438,0-10.227c-0.758,0.757-1.515,1.136-1.894,1.515
			c-6.439,5.682-14.016,9.849-22.728,10.985c0,0-0.379,0-0.379,0.379C942.803,1772.728,939.395,1772.728,935.605,1772.728z
			 M918.561,1721.591c0.758,3.409,1.137,6.439,1.895,9.849c3.029,9.849,12.121,17.424,21.59,18.561
			c11.743,1.137,20.834-3.03,26.895-13.637c3.788-6.439,4.166-13.257,3.409-20.454c-2.272-17.425-18.182-27.651-35.228-22.349
			C927.272,1696.212,918.561,1706.061,918.561,1721.591z"/>
		<path d="M696.212,1772.728c-2.651-0.379-5.303-0.758-7.954-1.516c-20.076-4.924-34.091-20.833-37.121-40.909
			c-1.895-12.5-0.379-25,6.439-35.984c9.091-15.53,23.105-24.242,41.287-25c12.879-0.758,25,1.894,35.606,10.228
			c10.984,8.333,17.045,19.317,18.939,32.954c0.758,5.303,1.136,10.606,0.758,15.909c-26.516,0-52.652,0-79.167,0
			c0.379,3.03,1.137,6.061,2.651,8.712c4.925,9.091,12.879,13.258,22.728,14.016c9.849,0.757,18.182-2.273,25.758-8.713
			c0.379-0.379,1.136-0.757,1.515-0.379c6.818,3.031,13.258,6.062,20.076,9.47c-5.304,7.197-11.364,13.258-19.697,16.667
			c-5.303,2.272-10.985,3.788-16.667,4.546c-0.379,0-0.757,0.379-1.136,0.379C705.682,1772.728,700.758,1772.728,696.212,1772.728z
			 M729.167,1708.333c-3.03-11.363-15.151-19.318-28.409-18.561c-6.818,0.379-12.879,2.651-17.803,7.197
			c-3.409,3.03-5.304,6.818-7.197,10.984C693.939,1708.333,711.363,1708.333,729.167,1708.333z"/>
		<path d="M557.955,1633.333c0,10.985,0,21.97,0,32.955c0,7.196,0,14.015,0,21.591c0.757-0.758,1.136-1.137,1.515-1.516
			c7.575-8.712,16.667-14.394,28.03-16.666c21.591-3.788,41.288,4.924,53.03,23.863c15.53,25.758,7.197,63.637-26.515,76.515
			c-3.031,1.137-6.439,1.516-9.471,2.273c-0.378,0-0.757,0.379-1.136,0.379c-4.167,0-8.333,0-12.121,0
			c-1.895-0.379-3.788-0.758-5.682-1.137c-10.228-2.651-18.562-8.333-25.379-16.288c-0.758-0.758-1.137-1.515-1.895-2.651
			c0,6.061,0,11.742,0,17.803c-4.545,0-8.333,0-12.878,0c0-0.757,0-1.515,0-2.272c0-43.939,0-88.258,0-132.197
			c0-0.757,0-1.515,0-2.272C549.621,1633.333,553.788,1633.333,557.955,1633.333z M635.228,1722.349
			c0-9.091-1.895-16.288-5.683-22.728c-14.394-24.242-46.212-25.379-63.257-4.924c-7.955,9.47-9.849,20.833-8.333,32.954
			c3.408,21.97,25,36.742,46.969,31.818C622.349,1755.303,635.228,1739.394,635.228,1722.349z"/>
		<path d="M284.47,1671.591c4.167,0,7.955,0,12.121,0c1.137,0,1.137,0.758,1.516,1.516c7.575,18.182,15.53,36.363,23.105,54.545
			c1.895,4.546,3.788,9.091,5.682,13.637c0.379,0.379,0.379,1.136,0.758,1.894c3.409-7.954,6.818-15.909,10.228-23.484
			c6.818-15.53,13.637-31.061,20.454-46.591c0.379-0.758,0.758-1.516,1.895-1.516c1.136,0,1.515,0.379,1.894,1.516
			c9.849,22.727,20.076,45.454,29.924,68.182c0.379,0.758,0.379,1.136,1.137,2.272c1.895-3.788,3.409-7.575,4.925-11.363
			c8.333-19.318,16.666-39.016,25-58.334c0.378-1.136,1.136-1.894,2.651-1.894c3.787,0,7.575,0,11.363,0
			c-1.137,3.03-2.651,5.682-3.788,8.712c-12.879,29.546-25.757,59.091-38.257,88.637c-0.379,0.758-0.758,1.515-1.895,1.515
			s-1.515-0.757-1.894-1.515c-9.849-22.349-20.076-44.697-29.925-67.046c-0.379-0.379-0.379-1.136-0.757-1.894
			c-1.137,2.651-2.273,5.303-3.409,7.575c-9.091,20.455-18.182,40.909-27.273,61.364c-0.379,0.758-0.757,1.515-1.894,1.515
			s-1.515-0.757-1.894-1.515c-13.637-31.818-26.895-63.258-40.531-95.076c-0.378-0.379-0.378-0.757-0.757-1.515
			S284.47,1671.97,284.47,1671.591z"/>
		<path d="M477.651,1772.728c-2.272-0.379-4.167-0.758-6.439-1.137c-17.803-3.788-28.788-15.53-34.849-31.439
			c-9.091-23.106,0-50.379,20.455-63.637c7.197-4.545,14.772-6.817,23.105-7.196c14.773-0.758,27.652,3.03,38.637,13.257
			c9.47,8.713,14.395,19.697,15.909,32.576c0.379,2.272,0.379,4.546,0.379,7.197c-29.546,0-59.091,0-88.637,0
			c-0.757,14.394,7.576,29.545,21.591,35.984c9.849,4.546,20.076,4.167,30.304,0.379c10.227-3.788,17.045-11.363,22.348-20.833
			c3.788,1.894,7.197,3.788,10.985,5.682c-0.379,0.758-0.758,1.894-1.137,2.651c-6.439,11.742-15.909,20.455-29.166,24.621
			c-3.031,0.758-6.061,1.516-9.092,1.895c-0.378,0-0.757,0.379-1.136,0.379C486.742,1772.728,482.197,1772.728,477.651,1772.728z
			 M520.833,1710.984c-1.515-16.666-19.696-30.303-37.878-29.545c-9.849,0.379-18.183,3.788-25,10.605
			c-5.304,5.304-7.955,11.743-10.228,18.939C471.97,1710.984,496.212,1710.984,520.833,1710.984z"/>
		<path d="M1014.394,1772.728c-3.03-1.137-5.682-2.273-7.954-4.546c-4.924-4.924-6.061-12.5-3.03-18.561s9.47-9.47,16.288-8.712
			c6.439,0.758,11.742,6.061,13.257,12.879c0,0.379,0.379,0.379,0.379,0.757c0,1.516,0,3.409,0,4.925
			c-0.757,1.515-1.136,3.409-1.894,4.924c-2.273,4.167-6.061,6.818-10.606,8.334
			C1018.561,1772.728,1016.667,1772.728,1014.394,1772.728z"/>
		<path d="M890.53,1633.333c0,9.47,0,18.561,0,28.03c-8.333,0-16.288,0-25,0c0-9.47,0-18.561,0-28.03
			C873.863,1633.333,882.197,1633.333,890.53,1633.333z"/>
		<path fill="#FFFFFF" d="M1020.833,1772.728c4.546-1.137,8.334-3.788,10.606-8.334c0.758-1.515,1.137-3.409,1.894-4.924
			c0,4.545,0,8.712,0,13.258C1029.167,1772.728,1025,1772.728,1020.833,1772.728z"/>
		<path d="M865.909,1671.591c8.333,0,16.288,0,24.621,0c0,32.955,0,65.53,0,98.485c-8.333,0-16.288,0-24.621,0
			C865.909,1737.5,865.909,1704.546,865.909,1671.591z"/>
	</g>
</g>
</svg>
